# xmcd
#
# Track frame offsets:
#	150
#	14267
#	25285
#	39457
#	51442
#	64455
#	80070
#	96872
#	107570
#	121860
#	136422
#	147962
#	165352
#	190159
#	200625
#	217905
#	229820
#	245770
#	258037
#	271882
#
# Disc length: 3779 seconds
#
# Revision: 0
# Processed by: cddbd v1.5.2PL0 Copyright (c) Steve Scherf et al.
# Submitted via: audiograbber 1.83.01
#
DISCID=1e0ec114
DTITLE=Maria Dolores Pradera - Esencia de Mujer vol1
DYEAR=1900
DGENRE=
TTITLE0=La flor de la canela
TTITLE1=El rosario de mi madre
TTITLE2=Yo vendo unos ojos negros
TTITLE3=Que te vaya bonito
TTITLE4=Caballo de paso
TTITLE5=A medias de la noche
TTITLE6=La hija de Don Juan Alba
TTITLE7=Fina estampa
TTITLE8=Son de La Loma
TTITLE9=Te solté la rienda
TTITLE10=Amarraditos
TTITLE11=Lágrimas negras
TTITLE12=Habaneras de Sevilla
TTITLE13=Limeña
TTITLE14=Caballo prieto azabache
TTITLE15=Que nadie sepa mi sufrir
TTITLE16=No te mires en el río
TTITLE17=Pa' todo el año
TTITLE18=Caballo viejo
TTITLE19=Caminemos
EXTD=
EXTT0=
EXTT1=
EXTT2=
EXTT3=
EXTT4=
EXTT5=
EXTT6=
EXTT7=
EXTT8=
EXTT9=
EXTT10=
EXTT11=
EXTT12=
EXTT13=
EXTT14=
EXTT15=
EXTT16=
EXTT17=
EXTT18=
EXTT19=
PLAYORDER=
